<svg xmlns="http://www.w3.org/2000/svg" viewBox="0 0 49.1 47.9"><title>OctoCat</title><g id="Layer_2" data-name="Layer 2"><g id="Fill"><path d="M24.6,0a24.6,24.6,0,0,0-7.8,47.9,1.3,1.3,0,0,0,1.7-1.2c0-.6-.1-2.5-.1-4.6-6.8,1.5-8.2-2.9-8.2-2.9a7.1,7.1,0,0,0-2.8-3.6c-2.2-1.5.2-1.5.2-1.5a5.3,5.3,0,0,1,3.8,2.6c2.2,3.7,5.7,2.6,7.1,2a5.1,5.1,0,0,1,1.6-3.3c-5.5-.6-11.2-2.7-11.2-12.1a9.3,9.3,0,0,1,2.5-6.6,8.9,8.9,0,0,1,.3-6.5s2-.7,6.7,2.5a25.7,25.7,0,0,1,6.2-.8,25.5,25.5,0,0,1,6.1.8c4.7-3.2,6.8-2.5,6.8-2.5a8.7,8.7,0,0,1,.2,6.5,9.3,9.3,0,0,1,2.5,6.6c0,9.4-5.7,11.5-11.2,12.1a5.7,5.7,0,0,1,1.7,4.5c0,3.3-.1,6-.1,6.8a1.3,1.3,0,0,0,1.7,1.2A24.6,24.6,0,0,0,24.6,0Z" style="fill:#ededed;fill-rule:evenodd"/><path d="M9.3,35.3c-.1.1-.2.1-.4,0s-.3-.2-.2-.3.2-.2.4-.1.3.2.2.4Z" style="fill:#ededed"/><path d="M10.3,36.4c-.1.1-.4,0-.5-.1a.5.5,0,0,1-.1-.6c.1-.1.4,0,.5.2a.3.3,0,0,1,.1.5Z" style="fill:#ededed"/><path d="M11.3,37.8c-.2.1-.4,0-.6-.2a.6.6,0,0,1,0-.6c.2-.1.4,0,.6.2a.6.6,0,0,1,0,.6Z" style="fill:#ededed"/><path d="M12.6,39.2a.5.5,0,0,1-.6-.1.5.5,0,0,1-.2-.7.6.6,0,0,1,.7.1.6.6,0,0,1,.1.7Z" style="fill:#ededed"/><path d="M14.4,39.9c0,.2-.3.3-.6.2s-.5-.3-.4-.5.3-.2.6-.2.5.3.4.5Z" style="fill:#ededed"/><path d="M16.4,40.1a.5.5,0,1,1-.5-.4.5.5,0,0,1,.5.4Z" style="fill:#ededed"/><path d="M18.3,39.8a.5.5,0,0,1-.5.4c-.2.1-.5,0-.5-.2s.1-.4.4-.5.6.1.6.3Z" style="fill:#ededed"/></g></g></svg>