<svg xmlns="http://www.w3.org/2000/svg" viewBox="0 0 47.7 47.7"><title>VK</title><g id="Layer_2" data-name="Layer 2"><g id="Fill"><path d="M40.4,0H7.4A7.4,7.4,0,0,0,0,7.4v33a7.4,7.4,0,0,0,7.4,7.3h33a7.3,7.3,0,0,0,7.3-7.3V7.4A7.4,7.4,0,0,0,40.4,0ZM38.6,33.4H34.3a3.7,3.7,0,0,1-2.2-.7c-1.6-1.1-3.2-4-4.4-3.7s-1.1,3.1-1.1,3.1a1.3,1.3,0,0,1-.3.8,2,2,0,0,1-.9.4H23.5a10.9,10.9,0,0,1-8.1-3.7c-4.2-4.3-7.8-12.8-7.8-12.8s-.2-.6,0-.9.9-.3.9-.3h4.7a1.5,1.5,0,0,1,.8.3l.4.5a30.2,30.2,0,0,0,1.7,3.7c2,3.3,2.9,4.1,3.5,3.7s.7-4.8.7-4.8a4.8,4.8,0,0,0-.5-2.2,2.1,2.1,0,0,0-1.4-.7c-.3,0,.1-.7.7-.9a9.3,9.3,0,0,1,4.1-.4,10.6,10.6,0,0,1,2.3.2c1.6.4,1,1.9,1,5.5,0,1.1-.2,2.7.7,3.3s1.2,0,3.4-3.7a38.3,38.3,0,0,0,1.8-3.8l.4-.6h5.6s1.4-.2,1.7.5-.6,2.3-2.6,5c-3.3,4.4-3.6,4-.9,6.5s3.1,3.6,3.2,3.8C40.9,33.3,38.6,33.4,38.6,33.4Z" style="fill:#ededed"/></g></g></svg>